<svg xmlns="http://www.w3.org/2000/svg" xmlns:xlink="http://www.w3.org/1999/xlink" width="1080" zoomAndPan="magnify" viewBox="0 0 810 809.999993" height="1080" preserveAspectRatio="xMidYMid meet" version="1.0"><path fill="#2e3136" d="M 592.441406 386.578125 C 613.390625 384.898438 632.082031 393.847656 633.570312 416.734375 C 634.480469 430.6875 633.71875 444.609375 634.027344 458.589844 C 633.792969 463.59375 634.800781 469.511719 632.410156 474.085938 C 627.160156 484.152344 612.554688 482.984375 609.675781 471.511719 C 607.558594 473.035156 605.390625 474.492188 603.179688 475.878906 C 590.417969 483.804688 570.109375 483.910156 559.816406 471.949219 C 558.511719 470.429688 557.515625 468.832031 556.480469 467.128906 C 554.792969 463.082031 553.964844 459.019531 553.867188 454.636719 C 553.058594 417.421875 597.316406 430.71875 607.578125 419.417969 C 608.910156 417.949219 609.394531 416.195312 609.203125 414.238281 C 608.964844 411.792969 607.921875 409.15625 605.964844 407.605469 C 603.816406 405.902344 601.195312 405.355469 598.527344 405.113281 C 582.5 403.667969 583.632812 417.25 573.207031 418.421875 C 569.953125 418.789062 566.519531 418.21875 563.917969 416.125 C 561.429688 414.121094 560.082031 410.988281 559.78125 407.855469 C 559.382812 403.679688 560.6875 399.519531 563.40625 396.324219 C 569.441406 389.128906 583.601562 387.390625 592.441406 386.578125 Z M 581.980469 460.984375 C 589.832031 465.960938 601.847656 461.300781 606.804688 453.980469 C 610.714844 448.199219 609.457031 441.402344 609.367188 434.808594 L 609.117188 434.53125 C 600.96875 438.921875 592.71875 440.324219 584.695312 444.277344 C 577.628906 447.761719 575.757812 455.148438 581.980469 460.984375 Z M 581.980469 460.984375 " fill-opacity="1" fill-rule="nonzero"/><path fill="#2e3136" d="M 416.125 387.53125 C 416.398438 374.742188 414.847656 364.972656 423.519531 354.410156 C 427.761719 349.246094 435.710938 345.640625 442.160156 345.542969 C 449.5 345.757812 460.089844 343.582031 466.09375 348.703125 C 470.085938 352.105469 471.035156 360.304688 467.320312 364.167969 C 465.726562 365.140625 462.808594 366.976562 461.167969 367.398438 C 455.941406 368.746094 447.765625 366.136719 443.191406 369.292969 L 443.027344 369.976562 C 439.0625 374.933594 440.234375 381.269531 440.363281 387.714844 C 447.089844 387.605469 460.640625 386.164062 465.777344 390.582031 C 472.28125 396.175781 470.496094 408.984375 460.929688 410.394531 C 454.351562 411.363281 447.320312 410.9375 440.609375 410.914062 C 439.597656 431.007812 441.265625 452.359375 440.144531 472.515625 C 440.066406 473.894531 438.515625 476.410156 437.582031 477.457031 C 433.363281 482.179688 423.546875 482.148438 419.402344 477.238281 C 418.261719 476.042969 416.769531 474.148438 416.589844 472.417969 C 415.925781 465.917969 416.242188 458.984375 416.257812 452.449219 L 416.425781 411.007812 C 413.304688 410.605469 411.179688 410.441406 408.472656 408.785156 C 400.917969 404.15625 402.074219 391.539062 410.589844 388.613281 C 412.496094 387.960938 414.148438 387.785156 416.125 387.53125 Z M 416.125 387.53125 " fill-opacity="1" fill-rule="nonzero"/><path fill="#2f70cc" d="M 291.941406 380.382812 C 301.292969 380.304688 316.886719 378.367188 322.734375 387.144531 C 324.910156 390.386719 325.660156 394.378906 324.804688 398.1875 C 322.191406 409.328125 314.289062 408.722656 305.449219 409.035156 C 294.761719 409.410156 279.28125 406.800781 269.929688 412.625 C 257.652344 420.277344 257.109375 429.828125 257.234375 443.0625 L 257.425781 460.640625 C 257.457031 464.523438 257.660156 468.5 256.667969 472.289062 C 254.300781 477.332031 249.695312 480.867188 243.992188 480.984375 C 240.398438 481.046875 236.925781 479.679688 234.34375 477.179688 C 230.949219 473.839844 230.214844 469.703125 230.203125 465.105469 C 230.15625 450.816406 230.320312 436.507812 230.191406 422.222656 C 230.042969 405.636719 235.207031 392.066406 250.589844 384.261719 C 259.269531 379.855469 265.355469 380.457031 274.875 380.484375 C 280.566406 380.503906 286.253906 380.46875 291.941406 380.382812 Z M 291.941406 380.382812 " fill-opacity="1" fill-rule="nonzero"/><path fill="#2e3136" d="M 672.921875 389.511719 C 680.765625 388.765625 698.378906 392.148438 703.925781 398.5 C 708.746094 404.023438 704.679688 417.664062 694.898438 415.25 C 689.582031 413.9375 685.449219 410.953125 680.09375 410.003906 C 676.660156 409.378906 669.144531 408.925781 666.335938 411.007812 C 664.960938 412.015625 664.097656 413.574219 663.972656 415.273438 C 663.578125 420.066406 669.734375 422.667969 673.554688 423.621094 C 680.941406 425.679688 688.121094 427.433594 695.1875 430.476562 C 707.039062 435.578125 711.4375 446.90625 709.804688 459.167969 C 708.910156 465.894531 705.925781 471.386719 700.609375 475.453125 C 694.058594 480.464844 681.671875 483.117188 673.589844 482.023438 C 665.378906 481.875 653.871094 479.652344 646.660156 475.300781 C 640.988281 471.878906 640.433594 463.3125 644.613281 458.367188 C 650.292969 451.648438 657.816406 458.246094 663.664062 460.75 C 667.800781 462.519531 672.890625 463.878906 677.410156 463.492188 C 682.566406 463.332031 689.332031 460.351562 687.71875 454.148438 C 685.679688 446.308594 668.660156 445.421875 662.199219 442.691406 C 655.554688 439.882812 649.9375 437.773438 645.929688 431.398438 C 640.523438 422.769531 641.160156 407.894531 647.8125 400 C 654.625 391.914062 663.175781 390.488281 672.921875 389.511719 Z M 672.921875 389.511719 " fill-opacity="1" fill-rule="nonzero"/><path fill="#2e3136" d="M 527.410156 344.773438 C 532.832031 344.417969 539.859375 346.625 540.734375 352.476562 C 541.785156 359.511719 541.375 368.359375 541.375 375.460938 L 541.347656 425.140625 C 541.363281 433.042969 541.25 441.652344 541.660156 449.492188 C 541.765625 455.636719 547.191406 461.125 548.359375 466.480469 C 549.808594 473.109375 545.035156 479.464844 538.71875 480.898438 C 534.695312 481.667969 530.527344 480.804688 527.136719 478.496094 C 515.808594 470.902344 516.742188 455.882812 516.746094 443.929688 L 516.828125 416.945312 L 516.707031 378.007812 C 516.699219 370.726562 516.578125 363.484375 516.9375 356.207031 C 517.261719 349.582031 520.824219 345.769531 527.410156 344.773438 Z M 527.410156 344.773438 " fill-opacity="1" fill-rule="nonzero"/><path fill="#2f70cc" d="M 254.414062 338.636719 L 285.492188 338.636719 C 289.65625 338.660156 297.820312 338.3125 301.707031 339.230469 C 310.183594 341.234375 324.675781 349.203125 324.792969 359.035156 C 324.800781 362.554688 323.394531 365.929688 320.882812 368.394531 C 317.039062 372.121094 310.316406 372.015625 305.277344 372.089844 C 298.207031 372.191406 291.054688 372.140625 283.980469 372.136719 C 259.074219 371.8125 247.679688 370.753906 230.5625 390.449219 C 229.96875 386.550781 230.140625 380.046875 230.140625 375.882812 L 230.023438 357.894531 C 230.027344 339.367188 239.0625 338.636719 254.414062 338.636719 Z M 254.414062 338.636719 " fill-opacity="1" fill-rule="nonzero"/><path fill="#2f70cc" d="M 200.667969 390.15625 C 204.28125 389.996094 206.886719 389.777344 210.398438 391.039062 C 214.558594 392.503906 217.867188 395.726562 219.445312 399.847656 C 220.867188 403.671875 221.09375 411.914062 221.214844 416.160156 C 221.453125 427.699219 221.519531 439.242188 221.410156 450.785156 C 221.390625 457.117188 221.203125 464.207031 221.871094 470.5 C 222.160156 473.214844 224.429688 477.523438 225.691406 480.152344 C 221.078125 480.109375 215.742188 480.386719 211.050781 480.484375 C 201.347656 480.226562 191.183594 476.394531 188.148438 466.214844 C 187.515625 464.097656 187.101562 461.917969 186.914062 459.714844 C 186.203125 450.445312 186.773438 438.585938 186.597656 429.085938 C 186.796875 421.429688 186.300781 413.648438 187.007812 406.023438 C 187.8125 397.316406 192.601562 392.445312 200.667969 390.15625 Z M 200.667969 390.15625 " fill-opacity="1" fill-rule="nonzero"/><path fill="#2f70cc" d="M 287.394531 417.730469 C 290 417.53125 293.863281 417.710938 296.585938 417.746094 C 306.75 417.875 323.585938 415.179688 325.171875 429.453125 C 325.753906 434.671875 323.898438 438.097656 320.742188 442.039062 C 318.617188 442.933594 315.421875 444.117188 313.210938 444.171875 C 291.539062 444.726562 291.265625 444.34375 291.484375 467.453125 C 291.050781 474.984375 287.726562 480.433594 279.480469 480.640625 C 263.410156 481.324219 265.902344 462.929688 266.082031 451.9375 C 266.226562 443.039062 264.34375 429.570312 270.785156 422.589844 C 274.90625 418.128906 281.824219 417.941406 287.394531 417.730469 Z M 287.394531 417.730469 " fill-opacity="1" fill-rule="nonzero"/><path fill="#2e3136" d="M 381.414062 386.5 C 386.789062 386.210938 393.925781 388.796875 395.265625 394.785156 C 396.253906 399.183594 395.890625 405.785156 395.898438 410.410156 L 395.921875 432.523438 C 395.9375 444.753906 396.070312 457.019531 395.792969 469.242188 C 395.636719 476.058594 391.507812 479.652344 385.230469 481.144531 C 383.449219 481.285156 381.65625 481.125 379.925781 480.671875 C 376.746094 479.804688 373.726562 477.640625 372.234375 474.652344 C 371.390625 472.953125 371.332031 470.902344 371.226562 469.035156 C 370.832031 461.832031 370.546875 396.417969 371.886719 393.160156 C 373.4375 389.398438 377.898438 387.757812 381.414062 386.5 Z M 381.414062 386.5 " fill-opacity="1" fill-rule="nonzero"/><path fill="#2e3136" d="M 488.890625 386.480469 C 504.507812 385.597656 503.441406 398.074219 503.449219 409.320312 C 503.453125 416.832031 503.355469 424.382812 503.402344 431.898438 C 503.445312 440.074219 503.449219 448.253906 503.402344 456.433594 C 503.378906 464.65625 505.363281 477.941406 494.796875 480.542969 C 489.914062 481.167969 482.332031 481.042969 479.757812 474.773438 C 479.25 473.535156 478.761719 469.460938 478.761719 468.078125 C 478.703125 444.246094 478.484375 420.378906 478.878906 396.554688 C 478.976562 390.730469 483.96875 387.953125 488.890625 386.480469 Z M 488.890625 386.480469 " fill-opacity="1" fill-rule="nonzero"/><path fill="#2f70cc" d="M 201.375 339.402344 C 211.375 337.859375 220.726562 344.738281 222.230469 354.742188 C 223.734375 364.75 216.820312 374.074219 206.808594 375.539062 C 196.851562 376.996094 187.589844 370.128906 186.097656 360.175781 C 184.601562 350.226562 191.429688 340.941406 201.375 339.402344 Z M 201.375 339.402344 " fill-opacity="1" fill-rule="nonzero"/><path fill="#2f70cc" d="M 382.203125 348.0625 C 389.816406 347.074219 396.816406 352.375 397.929688 359.972656 C 399.039062 367.574219 393.847656 374.65625 386.269531 375.890625 C 381.257812 376.703125 376.199219 374.753906 373.027344 370.785156 C 369.859375 366.820312 369.074219 361.453125 370.976562 356.746094 C 372.875 352.035156 377.167969 348.71875 382.203125 348.0625 Z M 382.203125 348.0625 " fill-opacity="1" fill-rule="nonzero"/><path fill="#2e3136" d="M 487.152344 348.671875 C 494.554688 346.40625 502.382812 350.609375 504.585938 358.027344 C 506.789062 365.449219 502.523438 373.242188 495.085938 375.386719 C 487.734375 377.503906 480.046875 373.296875 477.871094 365.960938 C 475.691406 358.628906 479.835938 350.910156 487.152344 348.671875 Z M 487.152344 348.671875 " fill-opacity="1" fill-rule="nonzero"/><path fill="#2e3136" d="M 443.027344 369.976562 L 443.191406 369.292969 C 447.765625 366.136719 455.941406 368.746094 461.167969 367.398438 C 462.808594 366.976562 465.726562 365.140625 467.320312 364.167969 C 460.171875 372.558594 450.445312 365.960938 443.027344 369.976562 Z M 443.027344 369.976562 " fill-opacity="1" fill-rule="nonzero"/></svg>